<?xml version="1.0" encoding="UTF-8"?>
<svg id="Capa_1" data-name="Capa 1" xmlns="http://www.w3.org/2000/svg" viewBox="0 0 50 50">
  <defs>
    <style>
      .cls-1 {
        fill: #307a55;
      }
    </style>
  </defs>
  <path class="cls-1" d="M40.92,16.44c.32.19,1.37-.02,1.97.12,2.4.55,1,2.15,1.22,2.93.1.38,1.91,1.32,2.35,2.15,1.29,2.46,1.15,12.32-.18,14.82-1.57,2.94-4.76,2.85-7.79,2.41-1.71-.25-1.08-1.18-1.53-1.51-.11-.08-2.31-.54-2.74-.62-4.05-.74-17.44-.95-20.99.57-.54.23-.51,1.33-2.03,1.57-1.06.17-4.93.17-5.72-.33-.11-.07-1.75-1.68-1.81-1.79-1.34-2.12-1.41-13.83.2-15.76.44-.54,1.89-.98,2.03-1.51.11-.41-.28-1.01-.27-1.53.07-1.97,2.21-1.03,3.19-1.61.62-.37,1.97-3.81,3.94-5.03,4.89-3.01,20.66-3.05,25.2.57,1.48,1.18,2.73,4.42,2.96,4.56ZM11.37,19.05c5.52.16,11.01-.38,16.53-.34,3,.02,6.54.72,9.62.35,2.61-.31-.61-4.46-1.8-5.28-3.65-2.51-18.65-2.61-22.08.32-.74.63-2.95,4.24-2.26,4.94ZM6.4,25.46h6.09c.5,0,.73-.97-.04-1.56-1.12-.86-6.96-2.82-7.18-.51-.11.56.69,1.94,1.13,2.07ZM37.5,25.46c.96.27,4.74,0,6.09,0,.58,0,1.47-2.38.84-3.01-.68-.93-6.99.91-7.72,2.21,0,.06.74.78.8.8ZM14.68,30.35c-.21.24-.43.67-.36.98.44.71,1.11,1.35,1.91,1.6,1.64.51,14.62.48,16.75.18,1.52-.21,2.97-1.18,2.28-2.86-3.37-2.52-18.16-2.64-20.59.1Z"/>
</svg>