<?xml version="1.0" encoding="UTF-8"?>
<svg id="Capa_1" data-name="Capa 1" xmlns="http://www.w3.org/2000/svg" viewBox="0 0 50 50">
  <defs>
    <style>
      .cls-1 {
        fill: #307a55;
      }
    </style>
  </defs>
  <path class="cls-1" d="M45.33,40.58v2.54c0,.16-.13.3-.3.3h-.91c-.16,0-.3.13-.3.3v3.69c0,.08-.03.15-.09.21h0c-.06.06-.13.09-.21.09h-5.71c-.32,0-.59-.26-.59-.59v-3.4c0-.16-.13-.3-.3-.3H13.24c-.16,0-.3.13-.3.3v3.4c0,.32-.26.59-.59.59h-5.71c-.08,0-.15-.03-.21-.09h0c-.06-.06-.09-.13-.09-.21v-3.69c0-.16-.13-.3-.3-.3h-.91c-.16,0-.3-.13-.3-.3v-2.54c0-.16.13-.3.3-.3h39.88c.16,0,.3.13.3.3Z"/>
  <path class="cls-1" d="M10.51,9.67v5.59h0c-1.92,0-3.47-1.39-3.47-3.1v-2.49h3.47Z"/>
  <g>
    <path class="cls-1" d="M39.25,15.26h0c1.92,0,3.47-1.39,3.47-3.1v-2.49h-3.47v5.59Z"/>
    <path class="cls-1" d="M45.15,37.51c-.03-2.54-.98-5.17-3.04-6.66v-10.84c0-.97-.88-1.75-1.96-1.75h-1.83V3.74s1.22-.48,1.22-.48l.05-1.35c-.25-.23-2.86.5-3.24.78v2.22H13.23v-2.48c-1.05-.19-2.02-.73-3.12-.62v1.45c.44.18,1.34.25,1.39.77v14.24h-1.83c-1.08,0-1.96.78-1.96,1.75v10.8c-2.1,1.47-3.04,4.11-3.04,6.69h11.48v-10.19c0-1.92,1.56-3.47,3.47-3.47h10.57c1.92,0,3.47,1.56,3.47,3.47v10.19h11.48ZM39.07,32.2c1.09,0,1.98.89,1.98,1.98s-.89,1.98-1.98,1.98-1.98-.89-1.98-1.98.89-1.98,1.98-1.98ZM10.76,36.16c-1.09,0-1.98-.89-1.98-1.98s.89-1.98,1.98-1.98,1.98.89,1.98,1.98-.89,1.98-1.98,1.98ZM24.44,17.62h-11.7V7.56h11.7v10.06ZM25.29,17.62V7.56h11.8v10.06h-11.8Z"/>
  </g>
  <path class="cls-1" d="M19.69,25.95h0v11.55h-1.24v-10.32c0-.68.56-1.24,1.24-1.24Z"/>
  <rect class="cls-1" x="21.37" y="25.95" width="1.24" height="11.55"/>
  <rect class="cls-1" x="24.29" y="25.95" width="1.24" height="11.55"/>
  <rect class="cls-1" x="27.22" y="25.95" width="1.24" height="11.55"/>
  <path class="cls-1" d="M30.14,25.95h0c.68,0,1.24.56,1.24,1.24v10.32h-1.24v-11.55h0Z"/>
</svg>