<?xml version="1.0" encoding="UTF-8"?>
<svg id="Capa_1" data-name="Capa 1" xmlns="http://www.w3.org/2000/svg" viewBox="0 0 50 50">
  <defs>
    <style>
      .cls-1 {
        fill: #307a55;
      }
    </style>
  </defs>
  <path class="cls-1" d="M43.69,9.47H6.31c-1.79,0-3.24,1.45-3.24,3.24v24.57c0,1.79,1.45,3.24,3.24,3.24h37.38c1.79,0,3.24-1.45,3.24-3.24V12.71c0-1.79-1.45-3.24-3.24-3.24ZM6.16,15.48l1.4-1.45c.08-.08.18-.12.28-.12.12,0,.24.06.32.16,0,0,0,.01.02.02l.07.09s.08.06.11.08c0,0,.01.01.02.02.15.11.31.23.46.35.33.25.65.5.97.75.16.13.32.26.48.38.13.1.26.21.39.31.16.13.32.26.48.4.51.42,1.01.85,1.51,1.28.29.25.58.5.87.75l.48.41c.23.2.45.4.68.6.24.21.48.42.71.63.86.76,1.71,1.51,2.57,2.26.19.16.37.32.56.48.71.61,1.42,1.22,2.13,1.8.16.13.32.26.48.39.21.17.41.33.62.5.27.21.54.42.81.63.32.25.65.49.98.73.71.52,1.16,1,2.15.6l15.92-13.27c.36-.3.88-.27,1.2.06l.83.86c.34.35.3.91-.07,1.21,0,0-.01,0-.02.01l-.11.08c-5.27,4.08-10.41,9.38-15.75,13.18-1.77,1.26-3.57,1.24-5.34,0-5.33-4.23-10.39-9.03-15.75-13.18l-.03-.02c-.08-.06-.22-.18-.37-.29h0c-.23-.19-.25-.52-.05-.73Z"/>
</svg>